PathFileType	4	(X/Y/Z)	s10c0201.trc
DataRate	CameraRate	NumFrames	NumMarkers	Units	OrigDataRate	OrigDataStartFrame	OrigNumFrames
200	200	4	50	mm	200	1000	2000
Frame#	Time	racr			lacr			c7			jug			rlel			rdr			llel			ldr			s2			lic			ric			lasi			rasi			rpsi			lpsi			rgt			lgt			rth1			rth2			rth3			rth4			rlfc			rmfc			rsh1			rsh2			rsh3			rsh4			rlmal			rmmal			rcal			rtoe			rmt5			lth1			lth2			lth4			lth3			llfc			lmfc			llmal			lmmal			lcal			lmt5			lsh1			lsh2			lsh3			lsh4			ltoe			SBIKE			LBIKE			RBIKE			
		X1	Y1	Z1	X2	Y2	Z2	X3	Y3	Z3	X4	Y4	Z4	X5	Y5	Z5	X6	Y6	Z6	X7	Y7	Z7	X8	Y8	Z8	X9	Y9	Z9	X10	Y10	Z10	X11	Y11	Z11	X12	Y12	Z12	X13	Y13	Z13	X14	Y14	Z14	X15	Y15	Z15	X16	Y16	Z16	X17	Y17	Z17	X18	Y18	Z18	X19	Y19	Z19	X20	Y20	Z20	X21	Y21	Z21	X22	Y22	Z22	X23	Y23	Z23	X24	Y24	Z24	X25	Y25	Z25	X26	Y26	Z26	X27	Y27	Z27	X28	Y28	Z28	X29	Y29	Z29	X30	Y30	Z30	X31	Y31	Z31	X32	Y32	Z32	X33	Y33	Z33	X34	Y34	Z34	X35	Y35	Z35	X36	Y36	Z36	X37	Y37	Z37	X38	Y38	Z38	X39	Y39	Z39	X40	Y40	Z40	X41	Y41	Z41	X42	Y42	Z42	X43	Y43	Z43	X44	Y44	Z44	X45	Y45	Z45	X46	Y46	Z46	X47	Y47	Z47	X48	Y48	Z48	X49	Y49	Z49	X50	Y50	Z50	
1000	5.0000	395.107837	1260.772708	-64.603490	453.323003	1278.362646	-362.621422	396.045587	1310.376964	-216.917567	380.133501	1161.337516	-224.575806	414.650542	1007.132673	8.731551	606.773467	911.699406	-51.678292	432.937392	1037.765336	-513.269609	604.728974	910.510886	-441.829938	-118.610340	1088.805013	-221.083284	21.662943	1112.487796	-394.743621	73.555182	1112.357466	-99.881111	61.282552	1021.283231	-372.560432	77.173372	1033.178101	-111.772555	-76.725416	1147.539233	-166.235205	-79.901805	1153.304283	-280.357236	-18.940810	1003.201185	-38.103666	-56.206804	965.468736	-414.906787	91.188928	911.652416	-28.548849	174.387871	884.680844	-48.672999	231.088367	821.046676	-53.340742	189.312832	914.626631	-65.313738	308.134167	748.238781	-76.782874	277.053377	730.556046	-190.667061	212.485776	685.405760	-36.832998	158.147501	615.924030	-50.151079	79.176954	581.502469	-47.464250	175.290354	598.036929	-79.088779	-10.935743	522.036559	-58.970180	14.987916	518.487478	-139.699709	-64.021316	540.596596	-105.821758	101.062726	360.986575	-101.511859	23.517458	399.053825	-40.480137	34.709510	860.420041	-432.186961	113.899547	825.302079	-421.007772	135.874211	852.989029	-414.783398	163.074063	752.548553	-406.613014	251.615242	684.351482	-386.603658	259.559856	684.156750	-273.945754	180.903054	309.897197	-382.454183	199.067081	314.422670	-301.597163	131.409908	270.443952	-339.920183	305.657148	238.571570	-405.782695	204.847347	567.700171	-415.100451	223.403223	483.105395	-402.600452	194.903271	399.152177	-397.385299	253.130143	484.710721	-378.956155	384.749531	278.350322	-350.466190	-218.315474	833.625264	-215.068441	-104.050098	80.197934	-418.491656	-103.984408	80.391718	-18.337100	
1001	5.0050	390.477043	1261.244077	-60.055874	455.300774	1278.231509	-359.852753	395.469663	1311.319969	-214.249020	379.554440	1162.239085	-221.657686	413.320361	1006.990107	8.468891	607.174166	912.128610	-50.877340	433.853983	1038.768203	-512.641902	604.917081	910.594442	-441.982573	-118.490536	1090.072740	-224.425119	24.718891	1112.305060	-397.179184	72.624343	1114.806510	-101.153951	63.644545	1021.642319	-372.573674	76.549803	1035.133565	-112.527618	-76.534513	1148.359945	-170.717040	-79.425354	1153.646334	-283.856484	-19.069142	1006.641612	-39.836715	-54.030630	965.292097	-416.278389	92.745961	916.661053	-30.728120	176.026769	891.295788	-50.572023	234.552861	828.795645	-54.765998	190.950756	921.540180	-67.130144	313.902153	757.553857	-79.139258	282.356805	739.049446	-193.125070	218.810674	694.270660	-38.745641	164.209779	624.725817	-51.493240	85.227063	590.391117	-48.404553	181.242068	606.653386	-80.401772	-4.764037	531.066783	-59.137986	20.766403	527.384772	-140.075458	-57.896542	549.836809	-105.828516	105.742644	369.142717	-101.726590	28.603678	407.872627	-40.627705	33.928674	858.732391	-432.519482	111.801831	821.189487	-420.545398	134.552087	848.107136	-414.230285	158.472586	746.843879	-405.421125	245.293190	675.915900	-385.301238	252.912085	675.720702	-272.978896	176.457606	301.293510	-381.470234	195.120737	305.751348	-300.825074	127.214174	262.836956	-339.387660	301.215759	229.905481	-405.563080	198.248272	559.393637	-414.610466	217.617803	474.944437	-401.813110	189.909308	390.761707	-396.708905	247.270006	476.723788	-378.050101	380.653734	268.775309	-350.266510	-218.352497	833.632699	-215.128980	-104.056380	80.202427	-418.479697	-103.988152	80.411596	-18.340868	
1002	5.0100	385.970422	1261.648177	-55.434605	457.239631	1278.105899	-357.111892	394.885180	1312.162018	-211.657866	378.873800	1163.008653	-218.866907	412.505649	1006.808306	8.514064	607.593998	912.668060	-49.766797	434.651448	1039.642690	-512.002440	605.028317	910.648008	-442.142168	-118.940397	1091.297492	-228.035410	27.608331	1112.005736	-398.970859	71.495707	1117.513251	-101.586939	66.126090	1022.230551	-372.429052	76.021908	1037.440259	-113.310628	-76.625347	1149.293330	-174.855613	-77.724979	1153.698741	-287.993772	-19.316715	1009.971624	-41.399219	-51.879412	965.096019	-417.735385	94.275733	921.677581	-32.540202	178.118094	898.077266	-51.966668	237.965225	836.593340	-57.060987	192.509414	928.470898	-68.578989	319.653217	767.101453	-81.484160	287.295276	748.079505	-195.190758	224.938938	703.364648	-40.460520	170.560081	633.592075	-52.887289	91.689409	599.046330	-49.355856	188.142197	615.719717	-81.624463	1.994199	539.976820	-59.403728	27.552018	536.141898	-140.765328	-51.162901	558.970992	-106.181525	111.675332	377.176729	-101.778689	34.527243	416.599172	-40.575947	33.267116	857.454761	-432.932364	108.848463	816.798763	-419.224760	133.215806	843.397700	-413.647841	153.625840	741.389046	-404.469011	238.744056	667.306974	-384.057132	245.664295	666.929524	-272.115919	171.604854	293.417376	-381.005579	190.639291	298.106775	-300.561945	122.502011	255.785919	-338.782224	296.200466	221.472356	-405.336009	191.492606	550.942826	-414.098122	211.578407	466.791563	-400.998230	184.667461	382.244260	-396.058756	241.204260	468.860683	-377.271958	376.083695	259.507572	-350.078229	-218.460169	833.477439	-215.124798	-104.045702	80.168544	-418.439579	-104.018950	80.458798	-18.355507	
1003	5.0150	381.641409	1261.957826	-50.803581	458.944671	1277.923566	-354.396469	394.326511	1312.985599	-209.115872	378.209744	1163.624141	-216.275328	411.674385	1006.448693	8.782443	607.913267	913.124761	-48.689433	435.484149	1040.488163	-511.426960	605.080479	910.674831	-442.342632	-118.166279	1092.188764	-231.336050	30.695139	1111.726695	-400.984908	70.445106	1120.129299	-102.665543	68.509478	1022.984025	-372.011989	75.579130	1039.604499	-114.092860	-76.561515	1150.038704	-179.229569	-76.769767	1154.308987	-291.948025	-19.547843	1013.439125	-42.968676	-49.814139	964.860627	-419.213644	95.717278	926.658308	-33.982607	180.184318	904.652785	-53.293075	241.234233	844.680162	-58.326913	194.128273	935.881347	-69.363157	325.558797	777.233316	-83.436267	292.789279	757.365788	-197.637315	231.304739	712.602044	-42.145159	177.225840	642.606305	-54.216977	98.530146	607.709343	-50.368647	194.721096	624.566822	-82.938377	9.475977	548.727377	-59.553390	33.497153	544.222664	-141.102971	-43.509029	568.118126	-106.645085	117.335441	384.592108	-101.986906	40.697250	424.907890	-40.775223	32.730548	856.337522	-433.386202	106.727774	813.005505	-419.010332	131.931464	838.740918	-413.166377	148.811926	736.148419	-403.715828	231.796803	659.090799	-383.292154	237.099409	658.905221	-272.062346	166.277398	285.989858	-380.690398	185.612108	290.704487	-300.421103	117.418491	249.098022	-338.420658	290.750113	213.143690	-405.123895	184.607694	542.605825	-413.611175	205.280665	458.598458	-400.157378	179.328693	373.726837	-395.458431	234.784487	460.983889	-376.327803	371.020110	250.364995	-349.906429	-218.443393	833.502070	-215.152445	-104.040543	80.196337	-418.461356	-103.994138	80.451642	-18.350492	
